<svg xmlns="http://www.w3.org/2000/svg" fill="none" viewBox="0 0 15 10"><g opacity=".7"><path fill="#181817" fill-rule="evenodd" d="M15 5.04237C9.09119 9.31859 5.80725 9.29166 0 5.04237V4.65477C5.90765 0.433663 9.19223 0.40686 15 4.65477V5.04237ZM7.69231 2.23006C9.17923 2.23006 10.3846 3.40715 10.3846 4.85916C10.3846 6.31118 9.17923 7.48827 7.69231 7.48827C6.20539 7.48827 5 6.31118 5 4.85916C5 3.40715 6.20539 2.23006 7.69231 2.23006Z" clip-rule="evenodd"/><ellipse fill="#181817" rx="1.538" ry="1.502" transform="matrix(1 0 0 -1 7.69227 4.85922)"/></g><rect width=".423" height="12.676" x="11.711" y="0" fill="#181817" transform="rotate(45 11.7114 0.00012207)"/><rect width=".423" height="12.676" x="12.01" y=".299" fill="#181817" transform="rotate(45 12.0103 0.29895)"/></svg>